<?xml version="1.0" encoding="utf-8"?>
<!-- Generator: Adobe Illustrator 19.0.0, SVG Export Plug-In . SVG Version: 6.00 Build 0)  -->
<svg version="1.1" id="Layer_1" xmlns="http://www.w3.org/2000/svg" xmlns:xlink="http://www.w3.org/1999/xlink" x="0px" y="0px"
	 viewBox="211.1 -13.6 352.2 38.8" style="enable-background:new 211.1 -13.6 352.2 38.8;" xml:space="preserve">
<style type="text/css">
	.st0{display:none;stroke:#FFFFFF;stroke-miterlimit:10;}
	.st1{fill:#FFFFFF;}
	.st2{fill:#E31B23;}
	.st3{fill:#00447C;}
</style>
<rect x="202" y="-26.2" class="st0" width="394.8" height="77"/>
<g>
	<path class="st1" d="M556.4,16.4c0.2-0.4,0.5-0.8,0.8-1.1c0.3-0.3,0.7-0.6,1.2-0.8c0.4-0.2,0.9-0.3,1.4-0.3c0.5,0,1,0.1,1.4,0.3
		c0.4,0.2,0.8,0.4,1.1,0.8c0.3,0.3,0.6,0.7,0.8,1.1c0.2,0.4,0.3,0.9,0.3,1.4c0,0.5-0.1,1-0.3,1.4c-0.2,0.4-0.5,0.8-0.8,1.1
		c-0.3,0.3-0.7,0.6-1.1,0.8c-0.4,0.2-0.9,0.3-1.4,0.3c-0.5,0-1-0.1-1.4-0.3c-0.4-0.2-0.8-0.4-1.2-0.8c-0.3-0.3-0.6-0.7-0.8-1.1
		c-0.2-0.4-0.3-0.9-0.3-1.4C556.1,17.3,556.2,16.8,556.4,16.4z M557,19c0.1,0.4,0.4,0.7,0.6,1c0.3,0.3,0.6,0.5,0.9,0.6
		c0.4,0.2,0.8,0.2,1.2,0.2c0.4,0,0.8-0.1,1.2-0.2c0.4-0.2,0.7-0.4,0.9-0.7c0.3-0.3,0.5-0.6,0.6-1c0.1-0.4,0.2-0.8,0.2-1.2
		c0-0.4-0.1-0.8-0.2-1.2c-0.2-0.4-0.4-0.7-0.6-1c-0.3-0.3-0.6-0.5-0.9-0.6c-0.4-0.2-0.7-0.2-1.2-0.2c-0.4,0-0.8,0.1-1.2,0.2
		c-0.4,0.2-0.7,0.4-0.9,0.6c-0.3,0.3-0.5,0.6-0.6,1c-0.2,0.4-0.2,0.8-0.2,1.2C556.8,18.2,556.8,18.6,557,19z M560,15.7
		c0.5,0,0.9,0.1,1.1,0.3c0.2,0.2,0.4,0.5,0.4,0.9c0,0.4-0.1,0.7-0.3,0.8c-0.2,0.2-0.5,0.3-0.8,0.3l1.2,1.9h-0.7l-1.1-1.8H559v1.8
		h-0.7v-4.2H560L560,15.7z M559.7,17.6c0.1,0,0.3,0,0.4,0c0.1,0,0.2,0,0.4-0.1c0.1,0,0.2-0.1,0.2-0.2c0.1-0.1,0.1-0.2,0.1-0.4
		c0-0.1,0-0.3-0.1-0.3c-0.1-0.1-0.1-0.1-0.2-0.2c-0.1,0-0.2-0.1-0.3-0.1c-0.1,0-0.2,0-0.3,0H559v1.3H559.7z"/>
</g>
<g>
	<g>
		<g>
			<path class="st1" d="M374.7,11.9c0,0-1.5,0-3,0c0-4.2,0-22.1,0-22.1c0-1.5-1.2-2.6-2.6-2.6h-9.3c-3.3,0-3.3,2.6-3.3,2.6
				s0-2.6-3.3-2.6h-13.4c-3,0-3.1,2.6-3.1,2.6s-0.1-2.6-3.1-2.6h-7.8c-2.5,0-2.6,2.6-2.6,2.6s0-2.6-2.6-2.6h-7.8
				c-1.4,0-2.6,1.1-2.6,2.5c-1.1-1-2.4-1.8-3.9-2.3c-1.8-0.6-3.8-1-6-1c-2.3,0-4.4,0.3-6.2,1h0c-1.5,0.6-2.7,1.3-3.8,2.3
				c-0.1-1.4-1.2-2.5-2.6-2.5h-47c-3,0-3.1,2.6-3.1,2.6s0-2.6-3.1-2.6h-7.8c-2.5,0-2.5,2.6-2.5,2.6s0-2.6-2.7-2.6h-7.8
				c-1.5,0-2.6,1.2-2.6,2.7v31c0,1.5,1.1,2.6,2.6,2.6h7.8c2.4,0,2.4-2.6,2.4-2.6s0,2.6,2.4,2.6h19.2c2.1,0,2.2-2.6,2.2-2.6
				s0,2.6,2.2,2.6h21.3c3.6,0,3.6-2.6,3.6-2.6s0,2.6,3.6,2.6h9.3c1.5,0,2.6-1.2,2.6-2.6v0c1.1,1,2.4,1.8,4,2.4c1.8,0.6,3.8,1,6,1
				c2.3,0,4.4-0.3,6.2-1c1.4-0.6,2.7-1.3,3.7-2.2c0,1.5,1.2,2.6,2.6,2.6h7.8c2.4,0,2.4-2.6,2.4-2.6s0,2.6,2.4,2.6h19.2
				c2.2,0,2.2-2.6,2.2-2.6s0,2.6,2.2,2.6h25.8c1.5,0,2.6-1.2,2.6-2.6v-6.2C377.4,13.1,376.2,11.9,374.7,11.9z"/>
			<path class="st1" d="M553.6,18.9c-0.3-1.4-0.8-4.4-1.3-7c-0.3-1.5-1.7-1.6-1.8-1.7c0.7-0.5,1.1-1.2,1.1-2.1c0-0.2,0-0.3,0-0.5
				l-1-5.4c-0.1-0.5-0.3-0.9-0.6-1.3c-0.5-0.6-1-1-1.6-1.4c0.8-0.5,1.2-1.3,1.2-2.1c0-0.2,0-0.3,0-0.5c0,0-0.9-4.8-1-5.3
				c-0.1-0.4-0.2-0.8-0.6-1.3c-4-4.6-10.5-2.4-14.5-0.4c-0.7-1.3-1.6-2.1-2.4-2.5c-3.7-2-9.1-0.1-12.8,1.8c-5.7-6-16.3,0.8-17.5,1.6
				c-0.6,0.4-1,1-1.1,1.7c-0.4-0.8-1-1.6-1.7-2.4c-1.2-1.2-2.8-2-4.9-2.5c-1.8-0.4-5-0.6-9.7-0.6h-7c-1.3,0-2.4,1.3-2.4,2.3
				c-1.1-1-2.3-1.6-3.7-1.8c-1.7-0.3-4.8-0.5-9.4-0.5h-6.6c-3.2,0-3.2,2.6-3.2,2.6s-0.1-2.6-3.2-2.6h-13.4c-2.4,0-2.4,2.6-2.4,2.6
				s0-2.6-2.4-2.6h-21.2c-1.4,0-2.6,1-2.6,2.3c-0.6-0.4-1.2-0.8-1.9-1.2c-2.2-1.2-4.9-1.8-8-1.8c-3.3,0-6,0.7-8.2,2.1
				c-2.3,1.5-3.7,3.2-4.3,5.2c-0.4,1.6-0.6,3.9-0.6,7.1v9.2c0,2.3,0.1,4,0.3,5.2c0.2,1.5,0.8,2.9,1.8,4.2c1,1.3,2.3,2.4,4.1,3.3
				c1.7,0.8,3.6,1.2,5.5,1.2c1.7,0,3.3-0.3,4.6-1c0.2-0.1,0.6-0.4,0.7-0.5c0.4,0.7,0.9,0.8,2.4,0.8h4.8c1.3,0,2.4-0.9,2.6-2.2
				c0.9,0.7,2,1.3,3.2,1.7c1.9,0.7,4.1,1.1,6.6,1.1c2.2,0,4.2-0.3,5.9-0.9c0.8-0.3,1.5-0.6,2.2-1.1c0.1,0.1,0.2,0.3,0.3,0.4
				c0.5,0.6,1.2,0.9,2,0.9h9.6c2.2,0,2.2-2.6,2.2-2.6s0,2.6,2.2,2.6c0,0,18.1,0,19.5,0c1.7,0,1.8-2.6,1.8-2.6s0,2.6,1.8,2.6
				c1.4,0,21.3,0,21.3,0c2.4,0,4.2-0.1,5.5-0.4c1.5-0.3,2.9-0.6,4-1.4c1.2-0.9,2.1-2.1,2.6-3.6c0.4-1.2,0.5-3.5,0.5-6.6l-0.1-10.8
				c0-0.8,0-1.4,0-2l3.8,21.2c0.2,0.8,0.5,2.2,1.3,2.6c0.8,0.4,1.7,0.3,2.4-0.1c6.1-3.4,8.9-4.8,11-4c2,0.8,0,3.8,2.4,4.4
				c0.6,0.1,1.3-0.2,1.8-0.6c2.5-1.6,7.2-4.6,10.4-3.1c1.5,0.7,1.2,3.4,2,4.1c0.9,0.8,2.2,0,3-0.5c3.4-2,6.9-3.6,9.7-3
				c3.1,0.7,4,3.6,5,2.2C553.5,21.4,553.8,20.1,553.6,18.9z"/>
		</g>
		<g>
			<path d="M550,13.8c-3.5-5.5-14.3,1.8-14.3,1.8c-0.5-10.1-14.8-1.2-14.8-1.2c-1-9.4-15-0.4-15-0.4l1,5.3
				c15.4-8.6,15.1,0.5,15.1,0.5c14.9-8.3,14.7,0.9,14.7,0.9C548.5,13.7,551,19,551,19L550,13.8z"/>
			<path d="M519.4,7.2L519.4,7.2l0.5,2.3c15.6-9.6,14.8,0.6,14.8,0.6C547.1,2.8,549,8.3,549,8.3l-1-5.4c-4.4-5-14.2,2-14.2,2
				c-0.1-9.8-13.6-1.9-15.1-1l-1.1,0.9l-0.5-5.6l0.7-0.4c15.4-9.4,14.9,0.6,14.9,0.6C545.1-7.8,547-2.4,547-2.4l-1-5.4
				c-4.4-5-14.2,2-14.2,2c-0.1-9.6-13.2-2.1-15.1-1l-3-0.2l0.7-1.1c-4.3-4.7-12.2,1.3-12.2,1.3l2.9,16
				C517.4,2.1,519.4,7.2,519.4,7.2z"/>
		</g>
		<g>
			<g>
				<path d="M234.9-9.8v31h-8.2l-4.8-14.1v14.1h-7.8v-31h7.8l5.2,13.9V-9.8H234.9z"/>
			</g>
			<g>
				<path d="M254.4-9.8l5.3,31h-9.5l-0.5-5.5h-3.3l-0.5,5.5h-9.6l4.7-31C241-9.8,254.4-9.8,254.4-9.8z M249.5,10.1
					c-0.5-3.5-0.9-7.9-1.4-13c-0.9,5.9-1.5,10.3-1.7,13H249.5z"/>
			</g>
			<g>
				<path d="M277.1-9.8v6.2h-5.5v24.8h-9.3V-3.6h-5.5v-6.2C256.8-9.8,277.1-9.8,277.1-9.8z"/>
			</g>
			<g>
				<path d="M288-9.8v31h-9.3v-31H288z"/>
				<path d="M311.4,8.2c0,3.1-0.1,5.3-0.3,6.6c-0.2,1.3-0.7,2.5-1.6,3.6c-0.9,1.1-2.1,1.9-3.6,2.5c-1.5,0.6-3.3,0.9-5.3,0.9
					c-1.9,0-3.6-0.3-5.1-0.8c-1.5-0.5-2.7-1.4-3.7-2.5c-0.9-1.1-1.5-2.3-1.7-3.6c-0.2-1.3-0.3-3.5-0.3-6.7V2.9
					c0-3.1,0.1-5.3,0.3-6.6c0.2-1.3,0.7-2.5,1.6-3.6s2.1-1.9,3.6-2.5c1.5-0.6,3.3-0.9,5.3-0.9c1.9,0,3.6,0.3,5.1,0.8
					s2.7,1.4,3.7,2.4c0.9,1.1,1.5,2.3,1.7,3.6c0.2,1.3,0.3,3.5,0.3,6.7L311.4,8.2L311.4,8.2z M302.1-2c0-1.4-0.1-2.4-0.3-2.8
					c-0.2-0.4-0.6-0.6-1.1-0.6c-0.5,0-0.8,0.2-1.1,0.5c-0.3,0.3-0.4,1.3-0.4,2.9v14.5c0,1.8,0.1,2.9,0.2,3.3
					c0.2,0.4,0.6,0.6,1.2,0.6c0.6,0,1-0.2,1.2-0.7c0.2-0.5,0.3-1.6,0.3-3.5V-2z"/>
			</g>
			<g>
				<path d="M334-9.8v31h-8.2L321,7.1v14.1h-7.8v-31h7.8l5.2,13.9V-9.8H334z"/>
				<path d="M353.5-9.8l5.3,31h-9.5l-0.5-5.5h-3.3l-0.5,5.5h-9.6l4.7-31C340.1-9.8,353.5-9.8,353.5-9.8z M348.6,10.1
					c-0.5-3.5-0.9-7.9-1.4-13c-0.9,5.9-1.5,10.3-1.7,13H348.6z"/>
			</g>
			<g>
				<path d="M369.5-9.8v24.8h5.7v6.2h-15v-31H369.5z"/>
			</g>
			<g>
				<path d="M407.2,1.6h-9.3v-2.8c0-1.8-0.1-2.9-0.3-3.3c-0.2-0.4-0.6-0.7-1.2-0.7c-0.6,0-0.9,0.2-1.1,0.6c-0.2,0.4-0.3,1.4-0.3,2.9
					v14.9c0,1.4,0.1,2.3,0.3,2.7c0.2,0.4,0.6,0.7,1.2,0.7c0.7,0,1.1-0.2,1.4-0.7c0.2-0.5,0.4-1.5,0.4-2.9V9.2h-1.9V4.5h10.9v16.6
					h-5.8l-0.9-2.2c-0.6,1-1.4,1.7-2.4,2.2c-1,0.5-2.1,0.7-3.4,0.7c-1.6,0-3-0.3-4.4-1c-1.4-0.7-2.4-1.5-3.1-2.4c-0.7-1-1.1-2-1.3-3
					c-0.2-1.1-0.3-2.7-0.3-4.8V1.3c0-3,0.2-5.1,0.6-6.4c0.4-1.3,1.4-2.6,3.2-3.7c1.7-1.1,4-1.7,6.8-1.7c2.7,0,5,0.5,6.8,1.5
					c1.8,1,3,2.1,3.5,3.5c0.5,1.3,0.8,3.3,0.8,5.8L407.2,1.6L407.2,1.6z"/>
			</g>
			<g>
				<path d="M429.8-9.8v20.7c0,2.3-0.1,4-0.3,4.9c-0.2,0.9-0.7,1.9-1.6,2.9c-0.9,1-2,1.8-3.4,2.3c-1.4,0.5-3.1,0.8-5,0.8
					c-2.1,0-4-0.3-5.6-0.9c-1.6-0.6-2.9-1.4-3.7-2.4c-0.8-1-1.3-2-1.4-3.1c-0.1-1.1-0.2-3.4-0.2-6.9V-9.8h9.3v23.2
					c0,1.4,0.1,2.2,0.3,2.6c0.2,0.4,0.5,0.6,1,0.6c0.6,0,1-0.2,1.1-0.6c0.2-0.4,0.3-1.4,0.3-2.9V-9.8H429.8z"/>
			</g>
			<g>
				<path d="M448.1-9.8l5.3,31h-9.5l-0.5-5.5h-3.3l-0.5,5.5H430l4.7-31C434.7-9.8,448.1-9.8,448.1-9.8z M443.2,10.1
					c-0.5-3.5-0.9-7.9-1.4-13c-0.9,5.9-1.5,10.3-1.7,13H443.2z"/>
			</g>
			<g>
				<path d="M454.5-9.8h6.6c4.4,0,7.3,0.1,8.9,0.4c1.6,0.3,2.8,1,3.8,2.2c1,1.2,1.5,3.1,1.5,5.8c0,2.4-0.3,4-1,4.9
					c-0.7,0.8-2.1,1.3-4.1,1.5c1.8,0.4,3.1,0.9,3.7,1.6c0.6,0.7,1,1.3,1.2,1.8c0.2,0.6,0.2,2.1,0.2,4.6v8.2h-8.6V10.8
					c0-1.7-0.1-2.7-0.5-3.1c-0.3-0.4-1.1-0.6-2.4-0.6v14h-9.3V-9.8L454.5-9.8z M463.8-4.6v6.9c1,0,1.8-0.1,2.2-0.4
					c0.4-0.2,0.6-1.1,0.6-2.4v-1.7c0-1-0.2-1.6-0.6-1.9C465.7-4.4,464.9-4.6,463.8-4.6z"/>
			</g>
			<g>
				<path d="M476.6-9.8h7c4.5,0,7.5,0.2,9.1,0.5c1.6,0.4,2.8,0.9,3.6,1.8c0.8,0.8,1.3,1.7,1.5,2.7s0.3,3,0.3,5.9v10.8
					c0,2.8-0.2,4.6-0.5,5.6c-0.3,0.9-0.8,1.7-1.6,2.2c-0.8,0.5-1.7,0.9-2.8,1.1c-1.1,0.2-2.8,0.3-5,0.3h-11.7L476.6-9.8L476.6-9.8z
					 M485.9-4.6v20.4c1.3,0,2.2-0.2,2.5-0.7c0.3-0.5,0.5-1.7,0.5-3.8v-12c0-1.4-0.1-2.3-0.2-2.7s-0.3-0.7-0.7-0.9
					C487.6-4.5,486.9-4.6,485.9-4.6z"/>
			</g>
		</g>
		<g>
			<g>
				<path class="st2" d="M234.2-10.5v30.9H226l-4.8-14.1v14.1h-7.8v-31h7.8l5.2,13.9v-13.9H234.2z"/>
			</g>
			<g>
				<path class="st2" d="M253.7-10.5l5.3,30.9h-9.5l-0.5-5.5h-3.3l-0.5,5.5h-9.6l4.7-31L253.7-10.5L253.7-10.5z M248.8,9.4
					c-0.5-3.5-0.9-7.9-1.4-13c-0.9,5.9-1.5,10.3-1.7,13H248.8z"/>
			</g>
			<g>
				<path class="st2" d="M276.3-10.5v6.2h-5.5v24.8h-9.3V-4.3h-5.5v-6.2H276.3z"/>
			</g>
			<g>
				<path class="st2" d="M287.3-10.5v30.9H278v-31L287.3-10.5L287.3-10.5z"/>
				<path class="st2" d="M310.7,7.5c0,3.1-0.1,5.3-0.3,6.6c-0.2,1.3-0.7,2.5-1.6,3.6c-0.9,1.1-2.1,1.9-3.6,2.5
					c-1.5,0.6-3.3,0.9-5.3,0.9c-1.9,0-3.6-0.3-5.1-0.8c-1.5-0.5-2.7-1.4-3.7-2.4c-0.9-1.1-1.5-2.3-1.7-3.6c-0.2-1.3-0.3-3.5-0.3-6.7
					V2.2c0-3.1,0.1-5.3,0.3-6.6c0.2-1.3,0.7-2.5,1.6-3.6c0.9-1.1,2.1-1.9,3.6-2.5c1.5-0.6,3.3-0.9,5.3-0.9c1.9,0,3.6,0.3,5.1,0.8
					c1.5,0.5,2.7,1.4,3.7,2.5c0.9,1.1,1.5,2.3,1.7,3.6c0.2,1.3,0.3,3.5,0.3,6.7L310.7,7.5L310.7,7.5z M301.4-2.7
					c0-1.4-0.1-2.4-0.3-2.8c-0.2-0.4-0.6-0.6-1.1-0.6c-0.5,0-0.8,0.2-1.1,0.5c-0.3,0.3-0.4,1.3-0.4,2.9v14.5c0,1.8,0.1,2.9,0.2,3.3
					c0.2,0.4,0.6,0.6,1.2,0.6c0.6,0,1-0.2,1.2-0.7c0.2-0.5,0.3-1.6,0.3-3.5L301.4-2.7L301.4-2.7z"/>
			</g>
			<g>
				<path class="st2" d="M333.3-10.5v30.9h-8.2l-4.8-14.1v14.1h-7.8v-31h7.8l5.2,13.9v-13.9H333.3z"/>
				<path class="st2" d="M352.8-10.5l5.3,30.9h-9.5l-0.5-5.5h-3.3l-0.5,5.5h-9.6l4.7-31L352.8-10.5L352.8-10.5z M347.9,9.4
					c-0.5-3.5-0.9-7.9-1.4-13c-0.9,5.9-1.5,10.3-1.7,13H347.9z"/>
			</g>
			<g>
				<path class="st2" d="M368.8-10.5v24.8h5.7v6.2h-15v-31L368.8-10.5L368.8-10.5z"/>
			</g>
			<g>
				<path class="st2" d="M406.4,0.9h-9.3V-2c0-1.8-0.1-2.9-0.3-3.3c-0.2-0.4-0.6-0.7-1.2-0.7c-0.6,0-0.9,0.2-1.1,0.6
					c-0.2,0.4-0.3,1.4-0.3,2.9v14.9c0,1.4,0.1,2.3,0.3,2.7c0.2,0.4,0.6,0.7,1.2,0.7c0.7,0,1.1-0.2,1.4-0.7c0.2-0.5,0.4-1.5,0.4-2.9
					V8.5h-1.9V3.8h10.9v16.6h-5.8l-0.9-2.2c-0.6,1-1.4,1.7-2.4,2.1c-1,0.5-2.1,0.7-3.4,0.7c-1.6,0-3-0.3-4.4-1
					c-1.4-0.7-2.4-1.5-3.1-2.4c-0.7-1-1.1-2-1.3-3c-0.2-1.1-0.3-2.7-0.3-4.8V0.6c0-3,0.2-5.1,0.6-6.4c0.4-1.3,1.4-2.6,3.2-3.7
					c1.7-1.1,4-1.7,6.8-1.7c2.7,0,5,0.5,6.8,1.5c1.8,1,3,2.1,3.5,3.5c0.5,1.3,0.8,3.3,0.8,5.8L406.4,0.9L406.4,0.9z"/>
			</g>
			<g>
				<path class="st2" d="M429.1-10.5v20.7c0,2.3-0.1,4-0.3,4.9c-0.2,0.9-0.7,1.9-1.6,2.9c-0.9,1-2,1.8-3.4,2.3
					c-1.4,0.5-3.1,0.8-5,0.8c-2.1,0-4-0.3-5.6-0.9c-1.6-0.6-2.9-1.4-3.7-2.4c-0.8-1-1.3-2-1.4-3.1c-0.1-1.1-0.2-3.4-0.2-6.9v-18.3
					h9.3v23.2c0,1.4,0.1,2.2,0.2,2.6c0.2,0.4,0.5,0.6,1,0.6c0.6,0,1-0.2,1.1-0.6c0.2-0.4,0.3-1.4,0.3-2.9v-22.8H429.1z"/>
			</g>
			<g>
				<path class="st2" d="M447.4-10.5l5.3,30.9h-9.5l-0.5-5.5h-3.3l-0.5,5.5h-9.6l4.7-31L447.4-10.5L447.4-10.5z M442.5,9.4
					c-0.5-3.5-0.9-7.9-1.4-13c-0.9,5.9-1.5,10.3-1.7,13H442.5z"/>
			</g>
			<g>
				<path class="st2" d="M453.8-10.5h6.6c4.4,0,7.3,0.1,8.9,0.4s2.8,1,3.8,2.2c1,1.2,1.5,3.1,1.5,5.8c0,2.4-0.3,4-1,4.9
					c-0.7,0.8-2.1,1.3-4.1,1.5c1.8,0.4,3.1,0.9,3.7,1.6c0.6,0.7,1,1.3,1.2,1.8c0.2,0.6,0.2,2.1,0.2,4.6v8.2h-8.6V10.1
					c0-1.7-0.2-2.7-0.5-3.1c-0.3-0.4-1.1-0.6-2.4-0.6v14h-9.3L453.8-10.5L453.8-10.5z M463.1-5.3v6.9c1,0,1.8-0.1,2.2-0.4
					c0.4-0.2,0.6-1.1,0.6-2.4v-1.7c0-1-0.2-1.6-0.6-1.9C464.9-5.1,464.2-5.3,463.1-5.3z"/>
			</g>
			<g>
				<path class="st2" d="M475.9-10.5h7c4.5,0,7.5,0.2,9.1,0.5c1.6,0.4,2.8,0.9,3.6,1.8c0.8,0.8,1.3,1.7,1.5,2.7c0.2,1,0.3,3,0.3,5.9
					v10.8c0,2.8-0.2,4.6-0.5,5.6c-0.3,0.9-0.8,1.7-1.6,2.2c-0.8,0.5-1.7,0.9-2.8,1.1c-1.1,0.2-2.8,0.3-5,0.3h-11.7L475.9-10.5
					L475.9-10.5z M485.2-5.3v20.4c1.3,0,2.2-0.2,2.5-0.7c0.3-0.5,0.5-1.7,0.5-3.8v-12c0-1.4-0.1-2.3-0.2-2.7
					c-0.1-0.4-0.3-0.7-0.7-0.9C486.9-5.2,486.2-5.3,485.2-5.3z"/>
			</g>
		</g>
		<g>
			<path class="st2" d="M516.1-7.2c0,0,15.1-9.5,15.3,0.8c0,0,9.8-6.9,14.2-2l1,5.4c0,0-1.9-5.5-14.3,1.8c0,0,0.5-10.1-15.1-0.5
				L516.1-7.2z"/>
			<path class="st2" d="M518.2,3.4c0,0,15-9.4,15.2,0.9c0,0,9.8-6.9,14.2-2l1,5.4c0,0-1.9-5.5-14.3,1.8c0,0,0.8-10.2-14.8-0.6
				L518.2,3.4z"/>
			<path class="st2" d="M505.5,13.5c0,0,14-9,15,0.4c0,0,14.3-9,14.8,1.2c0,0,10.8-7.3,14.3-1.8l1,5.2c0,0-2.6-5.3-14.3,1.8
				c0,0,0.2-9.3-14.7-0.9c0,0,0.3-9.2-15.1-0.5L505.5,13.5z"/>
			<g>
				<path class="st3" d="M501.7-7.3c0,0,9.8-6.6,14.2-2l3,15.9c0,0-2-5.1-14.3,2L501.7-7.3z"/>
				<polygon class="st1" points="504.2,-7.2 505,-8 505,-7.1 506.3,-6.9 505,-6.5 505,-5.6 504.2,-6.3 502.9,-5.9 503.8,-6.7 
					502.9,-7.4 				"/>
				<polygon class="st1" points="508.5,-6.1 509.3,-6.9 509.2,-6 510.6,-5.8 509.2,-5.5 509.3,-4.5 508.5,-5.3 507.2,-4.9 
					508.1,-5.7 507.2,-6.4 				"/>
				<polygon class="st1" points="509.6,-2.3 510.3,-3.1 510.3,-2.2 511.7,-2 510.3,-1.7 510.4,-0.7 509.6,-1.5 508.3,-1.1 
					509.1,-1.8 508.3,-2.5 				"/>
				<polygon class="st1" points="511,1.5 511.7,0.6 511.7,1.6 513.1,1.8 511.7,2.1 511.8,3 511,2.3 509.7,2.7 510.5,1.9 509.7,1.2 
									"/>
				<polygon class="st1" points="505.3,-3.4 506,-4.2 506,-3.3 507.3,-3.1 506,-2.8 506.1,-1.8 505.3,-2.6 504,-2.2 504.8,-3 
					503.9,-3.7 				"/>
				<polygon class="st1" points="506.3,0.4 507.1,-0.4 507.1,0.5 508.4,0.7 507.1,1.1 507.2,2 506.4,1.2 505.1,1.6 505.9,0.9 
					505,0.2 				"/>
				<polygon class="st1" points="507.4,4.2 508.2,3.4 508.2,4.4 509.5,4.6 508.2,4.9 508.2,5.8 507.5,5.1 506.1,5.5 507,4.7 
					506.1,4 				"/>
				<polygon class="st1" points="511.9,-9.1 512.6,-9.9 512.6,-9 514,-8.8 512.6,-8.4 512.7,-7.5 511.9,-8.2 510.6,-7.9 511.4,-8.6 
					510.6,-9.3 				"/>
				<polygon class="st1" points="512.9,-5.3 513.7,-6.1 513.7,-5.2 515,-5 513.7,-4.7 513.7,-3.7 512.9,-4.5 511.6,-4.1 512.5,-4.9 
					511.6,-5.6 				"/>
				<polygon class="st1" points="514,-1.5 514.8,-2.3 514.7,-1.4 516.1,-1.2 514.7,-0.9 514.8,0.1 514,-0.7 512.7,-0.3 513.6,-1.1 
					512.7,-1.8 				"/>
				<polygon class="st1" points="515.1,2.3 515.9,1.5 515.8,2.5 517.2,2.7 515.8,3 515.9,3.9 515.1,3.2 513.8,3.6 514.7,2.8 
					513.8,2.1 				"/>
			</g>
		</g>
	</g>
</g>
</svg>
